<svg xmlns="http://www.w3.org/2000/svg" xmlns:xlink="http://www.w3.org/1999/xlink" width="1140.216" height="776.014" viewBox="0 0 1140.216 776.014">
  <defs>
    <linearGradient id="linear-gradient" x1="0.5" y1="1" x2="0.5" gradientUnits="objectBoundingBox">
      <stop offset="0" stop-color="gray" stop-opacity="0.251"/>
      <stop offset="0.54" stop-color="gray" stop-opacity="0.122"/>
      <stop offset="1" stop-color="gray" stop-opacity="0.102"/>
    </linearGradient>
  </defs>
  <g id="Sales_Development_Representatives" data-name="Sales Development Representatives" transform="translate(-598 -233)">
    <path id="Path_10" data-name="Path 10" d="M498.49,826.57c77.07-42.65,165.11-56.28,251.15-38,121.92,25.92,275.15,15.76,304.83-184.21C1105.16,262.84,892.74,172.7,892.74,172.7s-141.26-11.83-224.79-56.87c-118.65-64-254.27-72.15-373.52-18-76.26,34.6-139.06,82.78-149.79,148.93-30,185,19.27,286.93-72.9,347.32S58.34,820.27,129,814.53s230.33-68.71,292.55,4.23C443.65,844.63,471.61,841.45,498.49,826.57Z" transform="translate(568.106 171.018)" fill="#fff" opacity="0.1"/>
    <rect id="Rectangle_2" data-name="Rectangle 2" width="318" height="22" transform="translate(1114.266 383.228)" fill="#fff" opacity="0.1"/>
    <rect id="Rectangle_3" data-name="Rectangle 3" width="318" height="22" transform="translate(1114.266 478.228)" fill="#fff" opacity="0.1"/>
    <rect id="Rectangle_4" data-name="Rectangle 4" width="318" height="22" transform="translate(1114.266 577.228)" fill="#fff" opacity="0.1"/>
    <rect id="Rectangle_5" data-name="Rectangle 5" width="20" height="57" transform="translate(1142.266 326.228)" fill="#fff" opacity="0.1"/>
    <rect id="Rectangle_6" data-name="Rectangle 6" width="20" height="4" transform="translate(1142.266 335.228)" fill="#fff" opacity="0.1"/>
    <rect id="Rectangle_7" data-name="Rectangle 7" width="20" height="4" transform="translate(1142.266 366.228)" fill="#fff" opacity="0.1"/>
    <rect id="Rectangle_8" data-name="Rectangle 8" width="20" height="57" transform="translate(1172.266 326.228)" fill="#fff" opacity="0.1"/>
    <rect id="Rectangle_9" data-name="Rectangle 9" width="20" height="4" transform="translate(1172.266 335.228)" fill="#fff" opacity="0.1"/>
    <rect id="Rectangle_10" data-name="Rectangle 10" width="20" height="4" transform="translate(1172.266 366.228)" fill="#fff" opacity="0.1"/>
    <rect id="Rectangle_11" data-name="Rectangle 11" width="20" height="57" transform="translate(1202.266 326.228)" fill="#fff" opacity="0.1"/>
    <rect id="Rectangle_12" data-name="Rectangle 12" width="20" height="4" transform="translate(1202.266 335.228)" fill="#fff" opacity="0.1"/>
    <rect id="Rectangle_13" data-name="Rectangle 13" width="20" height="4" transform="translate(1202.266 366.228)" fill="#fff" opacity="0.1"/>
    <rect id="Rectangle_14" data-name="Rectangle 14" width="20" height="57" transform="translate(1232.266 326.228)" fill="#fff" opacity="0.1"/>
    <rect id="Rectangle_15" data-name="Rectangle 15" width="20" height="4" transform="translate(1232.266 335.228)" fill="#fff" opacity="0.1"/>
    <rect id="Rectangle_16" data-name="Rectangle 16" width="20" height="4" transform="translate(1232.266 366.228)" fill="#fff" opacity="0.1"/>
    <rect id="Rectangle_17" data-name="Rectangle 17" width="20" height="57" transform="translate(1262.266 326.228)" fill="#fff" opacity="0.1"/>
    <rect id="Rectangle_18" data-name="Rectangle 18" width="20" height="4" transform="translate(1262.266 335.228)" fill="#fff" opacity="0.1"/>
    <rect id="Rectangle_19" data-name="Rectangle 19" width="20" height="4" transform="translate(1262.266 366.228)" fill="#fff" opacity="0.1"/>
    <rect id="Rectangle_20" data-name="Rectangle 20" width="20" height="57" transform="translate(1292.266 326.228)" fill="#fff" opacity="0.1"/>
    <rect id="Rectangle_21" data-name="Rectangle 21" width="20" height="4" transform="translate(1292.266 335.228)" fill="#fff" opacity="0.1"/>
    <rect id="Rectangle_22" data-name="Rectangle 22" width="20" height="4" transform="translate(1292.266 366.228)" fill="#fff" opacity="0.1"/>
    <rect id="Rectangle_23" data-name="Rectangle 23" width="20" height="57" transform="translate(1322.266 326.228)" fill="#fff" opacity="0.1"/>
    <rect id="Rectangle_24" data-name="Rectangle 24" width="20" height="4" transform="translate(1322.266 335.228)" fill="#fff" opacity="0.1"/>
    <rect id="Rectangle_25" data-name="Rectangle 25" width="20" height="4" transform="translate(1322.266 366.228)" fill="#fff" opacity="0.1"/>
    <rect id="Rectangle_26" data-name="Rectangle 26" width="20" height="57" transform="matrix(0.894, -0.448, 0.448, 0.894, 1312.548, 527.69)" fill="#fff" opacity="0.1"/>
    <rect id="Rectangle_27" data-name="Rectangle 27" width="20" height="4" transform="matrix(0.894, -0.448, 0.448, 0.894, 1316.588, 535.742)" fill="#fff" opacity="0.1"/>
    <rect id="Rectangle_28" data-name="Rectangle 28" width="20" height="4" transform="matrix(0.894, -0.448, 0.448, 0.894, 1330.475, 563.457)" fill="#fff" opacity="0.1"/>
    <rect id="Rectangle_29" data-name="Rectangle 29" width="20" height="57" transform="translate(1142.266 422.228)" fill="#fff" opacity="0.1"/>
    <rect id="Rectangle_30" data-name="Rectangle 30" width="20" height="4" transform="translate(1142.266 431.228)" fill="#fff" opacity="0.1"/>
    <rect id="Rectangle_31" data-name="Rectangle 31" width="20" height="4" transform="translate(1142.266 462.228)" fill="#fff" opacity="0.1"/>
    <rect id="Rectangle_32" data-name="Rectangle 32" width="20" height="57" transform="translate(1172.266 422.228)" fill="#fff" opacity="0.1"/>
    <rect id="Rectangle_33" data-name="Rectangle 33" width="20" height="4" transform="translate(1172.266 431.228)" fill="#fff" opacity="0.1"/>
    <rect id="Rectangle_34" data-name="Rectangle 34" width="20" height="4" transform="translate(1172.266 462.228)" fill="#fff" opacity="0.1"/>
    <rect id="Rectangle_35" data-name="Rectangle 35" width="20" height="57" transform="translate(1202.266 422.228)" fill="#fff" opacity="0.1"/>
    <rect id="Rectangle_36" data-name="Rectangle 36" width="20" height="4" transform="translate(1202.266 431.228)" fill="#fff" opacity="0.1"/>
    <rect id="Rectangle_37" data-name="Rectangle 37" width="20" height="4" transform="translate(1202.266 462.228)" fill="#fff" opacity="0.1"/>
    <rect id="Rectangle_38" data-name="Rectangle 38" width="20" height="57" transform="translate(1327.266 422.228)" fill="#fff" opacity="0.1"/>
    <rect id="Rectangle_39" data-name="Rectangle 39" width="20" height="4" transform="translate(1327.266 431.228)" fill="#fff" opacity="0.1"/>
    <rect id="Rectangle_40" data-name="Rectangle 40" width="20" height="4" transform="translate(1327.266 462.228)" fill="#fff" opacity="0.1"/>
    <rect id="Rectangle_41" data-name="Rectangle 41" width="20" height="57" transform="translate(1357.266 422.228)" fill="#fff" opacity="0.1"/>
    <rect id="Rectangle_42" data-name="Rectangle 42" width="20" height="4" transform="translate(1357.266 431.228)" fill="#fff" opacity="0.1"/>
    <rect id="Rectangle_43" data-name="Rectangle 43" width="20" height="4" transform="translate(1357.266 462.228)" fill="#fff" opacity="0.1"/>
    <rect id="Rectangle_44" data-name="Rectangle 44" width="20" height="57" transform="translate(1387.266 422.228)" fill="#fff" opacity="0.1"/>
    <rect id="Rectangle_45" data-name="Rectangle 45" width="20" height="4" transform="translate(1387.266 431.228)" fill="#fff" opacity="0.1"/>
    <rect id="Rectangle_46" data-name="Rectangle 46" width="20" height="4" transform="translate(1387.266 462.228)" fill="#fff" opacity="0.1"/>
    <rect id="Rectangle_47" data-name="Rectangle 47" width="20" height="57" transform="translate(1142.266 520.228)" fill="#fff" opacity="0.1"/>
    <rect id="Rectangle_48" data-name="Rectangle 48" width="20" height="4" transform="translate(1142.266 529.228)" fill="#fff" opacity="0.1"/>
    <rect id="Rectangle_49" data-name="Rectangle 49" width="20" height="4" transform="translate(1142.266 560.228)" fill="#fff" opacity="0.1"/>
    <rect id="Rectangle_50" data-name="Rectangle 50" width="20" height="57" transform="translate(1172.266 520.228)" fill="#fff" opacity="0.1"/>
    <rect id="Rectangle_51" data-name="Rectangle 51" width="20" height="4" transform="translate(1172.266 529.228)" fill="#fff" opacity="0.1"/>
    <rect id="Rectangle_52" data-name="Rectangle 52" width="20" height="4" transform="translate(1172.266 560.228)" fill="#fff" opacity="0.1"/>
    <rect id="Rectangle_53" data-name="Rectangle 53" width="20" height="57" transform="translate(1202.266 520.228)" fill="#fff" opacity="0.1"/>
    <rect id="Rectangle_54" data-name="Rectangle 54" width="20" height="4" transform="translate(1202.266 529.228)" fill="#fff" opacity="0.1"/>
    <rect id="Rectangle_55" data-name="Rectangle 55" width="20" height="4" transform="translate(1202.266 560.228)" fill="#fff" opacity="0.1"/>
    <rect id="Rectangle_56" data-name="Rectangle 56" width="20" height="57" transform="translate(1232.266 520.228)" fill="#fff" opacity="0.1"/>
    <rect id="Rectangle_57" data-name="Rectangle 57" width="20" height="4" transform="translate(1232.266 529.228)" fill="#fff" opacity="0.1"/>
    <rect id="Rectangle_58" data-name="Rectangle 58" width="20" height="4" transform="translate(1232.266 560.228)" fill="#fff" opacity="0.1"/>
    <rect id="Rectangle_59" data-name="Rectangle 59" width="20" height="57" transform="translate(1262.266 520.228)" fill="#fff" opacity="0.1"/>
    <rect id="Rectangle_60" data-name="Rectangle 60" width="20" height="4" transform="translate(1262.266 529.228)" fill="#fff" opacity="0.1"/>
    <rect id="Rectangle_61" data-name="Rectangle 61" width="20" height="4" transform="translate(1262.266 560.228)" fill="#fff" opacity="0.1"/>
    <rect id="Rectangle_62" data-name="Rectangle 62" width="20" height="57" transform="translate(1292.266 520.228)" fill="#fff" opacity="0.1"/>
    <rect id="Rectangle_63" data-name="Rectangle 63" width="20" height="4" transform="translate(1292.266 529.228)" fill="#fff" opacity="0.1"/>
    <rect id="Rectangle_64" data-name="Rectangle 64" width="20" height="4" transform="translate(1292.266 560.228)" fill="#fff" opacity="0.1"/>
    <path id="Path_11" data-name="Path 11" d="M804.16,160.29v51.92h-20V156.48Q794.2,158.25,804.16,160.29Z" transform="translate(568.106 171.018)" fill="#fff" opacity="0.1"/>
    <rect id="Rectangle_65" data-name="Rectangle 65" width="20" height="4" transform="translate(1352.266 335.228)" fill="#fff" opacity="0.1"/>
    <rect id="Rectangle_66" data-name="Rectangle 66" width="20" height="4" transform="translate(1352.266 366.228)" fill="#fff" opacity="0.1"/>
    <path id="Path_12" data-name="Path 12" d="M834.16,167.23v45h-20v-49.8c2.6.57,5.19,1.17,7.78,1.78Q828.08,165.65,834.16,167.23Z" transform="translate(568.106 171.018)" fill="#fff" opacity="0.1"/>
    <path id="Path_13" data-name="Path 13" d="M834.16,167.23v1h-20v-4h7.78Q828.08,165.65,834.16,167.23Z" transform="translate(568.106 171.018)" fill="#fff" opacity="0.1"/>
    <rect id="Rectangle_67" data-name="Rectangle 67" width="20" height="4" transform="translate(1382.266 366.228)" fill="#fff" opacity="0.1"/>
    <g id="Group_9" data-name="Group 9" transform="translate(597.996 233.018)" opacity="0.1">
      <path id="Path_14" data-name="Path 14" d="M694.55,287.49s-6.06-2.06-9,3.29a9.75,9.75,0,0,0,.13,9.38c1.92,3.46,5.87,8,13.35,7.56,6.35-.34,8.46-5.18,9-9.69a10,10,0,0,0-13.22-10.66Z" transform="translate(-29.89 -62)" fill="#fff"/>
      <path id="Path_15" data-name="Path 15" d="M687,300.65a9.75,9.75,0,0,1-.13-9.38c2.92-5.34,9-3.29,9-3.29l.31-.11a9.87,9.87,0,0,1,7.13.16,9.87,9.87,0,0,0-8.41-.8l-.31.11s-6.06-2.06-9,3.29a9.75,9.75,0,0,0,.13,9.38,14.57,14.57,0,0,0,6.86,6.49A15,15,0,0,1,687,300.65Z" transform="translate(-29.89 -62)" fill="#fff" opacity="0.1"/>
      <path id="Path_16" data-name="Path 16" d="M691.42,290.06s2.25,1.77,7.71,0" transform="translate(-29.89 -62)" fill="#fff" opacity="0.2"/>
      <path id="Path_17" data-name="Path 17" d="M690.93,277.21s3.85,10.44,3.53,13.17l3.05-.32s-5.14-9.15-3.85-12.85Z" transform="translate(-29.89 -62)" fill="#fff"/>
      <path id="Path_18" data-name="Path 18" d="M690.93,277.21s3.85,10.44,3.53,13.17l3.05-.32s-5.14-9.15-3.85-12.85Z" transform="translate(-29.89 -62)" fill="#fff" opacity="0.2"/>
      <path id="Path_19" data-name="Path 19" d="M706.67,278.09s-6.07-3.1-8.78-.54-3.13,9.11-3.13,9.11S704.65,288,706.67,278.09Z" transform="translate(-29.89 -62)" fill="#fff"/>
      <path id="Path_20" data-name="Path 20" d="M706.67,278.09s-6.07-3.1-8.78-.54-3.13,9.11-3.13,9.11S704.65,288,706.67,278.09Z" transform="translate(-29.89 -62)" fill="#fff" opacity="0.1"/>
      <path id="Path_21" data-name="Path 21" d="M694.75,286.66s1.59-7.6,11.91-8.58" transform="translate(-29.89 -62)" fill="#fff"/>
    </g>
    <g id="Group_10" data-name="Group 10" transform="translate(597.996 233.018)" opacity="0.1">
      <path id="Path_22" data-name="Path 22" d="M822.55,386.49s-6.06-2.06-9,3.29a9.75,9.75,0,0,0,.13,9.38c1.92,3.46,5.87,8,13.35,7.56,6.35-.34,8.46-5.18,9-9.69a10,10,0,0,0-13.22-10.66Z" transform="translate(-29.89 -62)" fill="#fff"/>
      <path id="Path_23" data-name="Path 23" d="M815,399.65a9.75,9.75,0,0,1-.13-9.38c2.92-5.34,9-3.29,9-3.29l.31-.11a9.87,9.87,0,0,1,7.13.16,9.87,9.87,0,0,0-8.41-.8l-.31.11s-6.06-2.06-9,3.29a9.75,9.75,0,0,0,.13,9.38,14.57,14.57,0,0,0,6.86,6.49,15,15,0,0,1-5.58-5.85Z" transform="translate(-29.89 -62)" fill="#fff" opacity="0.1"/>
      <path id="Path_24" data-name="Path 24" d="M819.42,389.06s2.25,1.77,7.71,0" transform="translate(-29.89 -62)" fill="#fff" opacity="0.2"/>
      <path id="Path_25" data-name="Path 25" d="M818.93,376.21s3.85,10.44,3.53,13.17l3.05-.32s-5.14-9.15-3.85-12.85Z" transform="translate(-29.89 -62)" fill="#fff"/>
      <path id="Path_26" data-name="Path 26" d="M818.93,376.21s3.85,10.44,3.53,13.17l3.05-.32s-5.14-9.15-3.85-12.85Z" transform="translate(-29.89 -62)" fill="#fff" opacity="0.2"/>
      <path id="Path_27" data-name="Path 27" d="M834.67,377.09s-6.07-3.1-8.78-.54-3.13,9.11-3.13,9.11S832.65,387,834.67,377.09Z" transform="translate(-29.89 -62)" fill="#fff"/>
      <path id="Path_28" data-name="Path 28" d="M834.67,377.09s-6.07-3.1-8.78-.54-3.13,9.11-3.13,9.11S832.65,387,834.67,377.09Z" transform="translate(-29.89 -62)" fill="#fff" opacity="0.1"/>
      <path id="Path_29" data-name="Path 29" d="M822.75,385.66s1.59-7.6,11.91-8.58" transform="translate(-29.89 -62)" fill="#fff"/>
    </g>
    <ellipse id="Ellipse_2" data-name="Ellipse 2" cx="54" cy="19.2" rx="54" ry="19.2" transform="translate(1539.016 824.658)" opacity="0.1"/>
    <path id="Path_30" data-name="Path 30" d="M1024.95,673s30.81-104.59-5.78-181.58c-15.35-32.31-20.45-68.58-13.36-103.64a277.841,277.841,0,0,1,14.67-48.65" transform="translate(568.106 171.018)" fill="none" stroke="#535461" stroke-miterlimit="10" stroke-width="2"/>
    <path id="Path_31" data-name="Path 31" d="M997.72,290.47c0,12.82,23.21,50,23.21,50s23.21-37.17,23.21-50a23.21,23.21,0,0,0-46.42,0Z" transform="translate(568.106 171.018)" fill="#fff"/>
    <path id="Path_32" data-name="Path 32" d="M959.35,361.47c7,10.76,46.65,29.35,46.65,29.35s-.72-43.82-7.69-54.58a23.225,23.225,0,0,0-39,25.23Z" transform="translate(568.106 171.018)" fill="#fff"/>
    <path id="Path_33" data-name="Path 33" d="M961,482.81c11.45,5.77,55.09,1.78,55.09,1.78s-22.74-37.46-34.19-43.23A23.211,23.211,0,0,0,961,482.81Z" transform="translate(568.106 171.018)" fill="#fff"/>
    <path id="Path_34" data-name="Path 34" d="M983,574.33c10.31,7.62,54,11.07,54,11.07s-16.08-40.77-26.39-48.39A23.211,23.211,0,1,0,983,574.33Z" transform="translate(568.106 171.018)" fill="#fff"/>
    <path id="Path_35" data-name="Path 35" d="M1054.74,393.3c-9.19,8.93-52,18.18-52,18.18s10.49-42.55,19.68-51.48a23.21,23.21,0,1,1,32.34,33.3Z" transform="translate(568.106 171.018)" fill="#fff"/>
    <path id="Path_36" data-name="Path 36" d="M1079,500.66c-11.45,5.77-55.09,1.78-55.09,1.78s22.74-37.46,34.19-43.23a23.211,23.211,0,1,1,20.9,41.45Z" transform="translate(568.106 171.018)" fill="#fff"/>
    <path id="Path_37" data-name="Path 37" d="M1088.34,608.25c-10.31,7.62-54,11.07-54,11.07s16.08-40.77,26.39-48.39a23.209,23.209,0,1,1,27.6,37.321Z" transform="translate(568.106 171.018)" fill="#fff"/>
    <ellipse id="Ellipse_3" data-name="Ellipse 3" cx="54" cy="19.2" rx="54" ry="19.2" transform="translate(1404.615 769.458)" opacity="0.1"/>
    <path id="Path_38" data-name="Path 38" d="M888.32,620.37s14.43-49-2.71-85.07a77.4,77.4,0,0,1-6.26-48.56,130.186,130.186,0,0,1,6.88-22.79" transform="translate(568.106 171.018)" fill="none" stroke="#535461" stroke-miterlimit="10" stroke-width="2"/>
    <path id="Path_39" data-name="Path 39" d="M875.56,441.15c0,6,10.87,23.42,10.87,23.42s10.87-17.42,10.87-23.42a10.875,10.875,0,0,0-21.75,0Z" transform="translate(568.106 171.018)" fill="#fff"/>
    <path id="Path_40" data-name="Path 40" d="M857.59,474.41c3.26,5,21.86,13.75,21.86,13.75s-.34-20.53-3.6-25.57a10.876,10.876,0,1,0-18.26,11.82Z" transform="translate(568.106 171.018)" fill="#fff"/>
    <path id="Path_41" data-name="Path 41" d="M858.37,531.26c5.36,2.7,25.81.84,25.81.84s-10.65-17.55-16-20.26a10.874,10.874,0,0,0-9.79,19.42Z" transform="translate(568.106 171.018)" fill="#fff"/>
    <path id="Path_42" data-name="Path 42" d="M868.65,574.14c4.83,3.57,25.3,5.19,25.3,5.19s-7.54-19.1-12.36-22.67a10.875,10.875,0,1,0-12.93,17.49Z" transform="translate(568.106 171.018)" fill="#fff"/>
    <path id="Path_43" data-name="Path 43" d="M902.28,489.33c-4.31,4.18-24.38,8.52-24.38,8.52s4.92-19.94,9.22-24.12a10.873,10.873,0,0,1,15.15,15.6Z" transform="translate(568.106 171.018)" fill="#fff"/>
    <path id="Path_44" data-name="Path 44" d="M913.67,539.63c-5.36,2.7-25.81.84-25.81.84s10.65-17.55,16-20.26a10.874,10.874,0,0,1,9.79,19.42Z" transform="translate(568.106 171.018)" fill="#fff"/>
    <path id="Path_45" data-name="Path 45" d="M918,590c-4.83,3.57-25.3,5.19-25.3,5.19s7.54-19.1,12.36-22.67A10.874,10.874,0,0,1,918,590Z" transform="translate(568.106 171.018)" fill="#fff"/>
    <path id="Path_46" data-name="Path 46" d="M1168.22,717.85,858.58,553.6H793.65l16.8-139.84a23.18,23.18,0,0,0-20.71-25.83L788,388h-.17l-236.21,3.59A25.49,25.49,0,0,0,525,411.22l-11,80.36-1.59-2.43-.77-1.17c5.81-3.78-5.65-26.25-15.36-43l-.88-1.52c6.16-2.57,13-5,13-5L493.25,429s-13.94-20.18-28.78-36.55c10-62.62-11.12-135-11.37-136l-.56.15A29.9,29.9,0,0,0,457,240.8h0a30,30,0,0,0-10.12-22.48c-.59-5.36-1.44-10.88-2.66-16.69h0c-.22-1-.45-2.11-.7-3.17-1.14-5-2.29-10-3.8-14.9a75,75,0,0,0-3.89-10.21c-7.89-16.67-24.12-28.59-41.9-32.79-9.15-2.16-18.53,1.19-27.07-.41-4.3-.79-8.15-4.92-12.34-6.59-5.31-2.12-11.06-3.11-16.68-4-7-1.17-14.27-2.33-21.24-.81-11.5,2.5-20.27,11.82-26.72,21.66s-11.46,20.74-19.43,29.4c-5.33,5.8-11.89,10.46-16.64,16.74-7,9.24-9.43,21-11.68,32.42-2.78,14.05-5.56,28.3-5.5,42.57,0,3.31.05,6.63.34,9.95.73,8.52,2.67,16.92,3.13,25.45,0,.92.07,1.84.09,2.76-.1,15.61-4.71,31-9.29,46-1.46,4.77-2.94,9.58-4.67,14.28-9.2.78-18,2.62-24.71,6.24C177,389.34,158.13,418.6,158.13,418.6l-35.87,33s14.16,6.61,20.77,17.94a8,8,0,0,0,.81,1.13l-.52,1.2-21.06,48.64s13.22,9.44,33,7.55a24.561,24.561,0,0,1,9.6.7c0,.6-.06,1.21-.08,1.85-1.21,27.83-1.85,88.81,12.55,130l-32.54,38-65,19.25-2.83,50H1170.11ZM230.73,531.4a39.821,39.821,0,0,1,8.11,2.58v34.76c-1.72-12.28-4.11-24.86-7.44-35.32C231.19,532.74,231,532.07,230.73,531.4Zm187.69,66.89v-.36a17.74,17.74,0,0,1,.49-3.6,10.18,10.18,0,0,1,2.61-4.86c2.41-2.41,4.9-5,7.39-7.81a36.39,36.39,0,0,0,6.54,10.81c3.2,3.57,10.35,6.78,20.39,9.68a367.935,367.935,0,0,0-37.42-3.86Zm81.61-4.8-32.68,9.67c-15.45-3.46-26.44-7.42-30.51-12A35,35,0,0,1,430.32,580c11.66-13.52,23-31.71,25.6-56.55.07-.65.12-1.32.18-2a65.1,65.1,0,0,0,10-7l.59,1.38a175.9,175.9,0,0,0,36.65,53.58ZM451.59,258.06c2.57,9.27,20,74.9,11.26,132.61-5.44-5.86-10.93-11.1-15.85-14.55a30.782,30.782,0,0,0-3.65-2.17c-1.09-10.58-1.59-21.55-1.67-32.42.1-13.46.9-26.81,2-39.51,1.19-13.46,2.59-26.3,3.46-38.93A30.208,30.208,0,0,0,451.59,258.06Z" transform="translate(568.106 171.018)" fill="url(#linear-gradient)"/>
    <path id="Path_47" data-name="Path 47" d="M451.68,215.27h8.53v59h-8.53a24.56,24.56,0,0,1-24.56-24.56v-9.82a24.56,24.56,0,0,1,24.56-24.62Z" transform="translate(1455.426 660.508) rotate(180)" fill="#dfe6f5"/>
    <rect id="Rectangle_68" data-name="Rectangle 68" width="14.48" height="58.95" rx="6.03" transform="translate(1002.456 445.238) rotate(180)" fill="#535461"/>
    <g id="Group_11" data-name="Group 11" transform="translate(597.996 233.018)" opacity="0.1">
      <path id="Path_48" data-name="Path 48" d="M451.68,215.27h8.53v59h-8.53a24.56,24.56,0,0,1-24.56-24.56v-9.82a24.56,24.56,0,0,1,24.56-24.62Z" transform="translate(857.43 427.49) rotate(180)"/>
      <rect id="Rectangle_69" data-name="Rectangle 69" width="14.48" height="58.95" rx="6.03" transform="translate(404.46 212.22) rotate(180)"/>
    </g>
    <rect id="Rectangle_70" data-name="Rectangle 70" width="149.09" height="154.65" transform="translate(858.716 417.468)" fill="#865a61"/>
    <rect id="Rectangle_71" data-name="Rectangle 71" width="149.09" height="154.65" transform="translate(858.716 396.168)" opacity="0.1"/>
    <path id="Path_49" data-name="Path 49" d="M434.61,374.71l-9,65.4-4.24,30.74-1.56,11.29-13.07,25.48-24,46.76-46.3,5.56L255,445.09S212.36,363.6,277.19,371c36.35,4.16,45-28.38,45.65-57.77a218.517,218.517,0,0,0-4-44.1l64.82,31.49q-2.26,10.53-3.4,19.35c-3.16,24.06-.54,39.06,4.94,48.15C399.79,392.33,434.61,374.71,434.61,374.71Z" transform="translate(568.106 171.018)" fill="#fdc2cc"/>
    <path id="Path_50" data-name="Path 50" d="M383.68,300.63q-2.26,10.53-3.4,19.35a75.41,75.41,0,0,1-20.68,2.88,74.64,74.64,0,0,1-36.76-9.61,218.517,218.517,0,0,0-4-44.1Z" transform="translate(568.106 171.018)" opacity="0.1"/>
    <circle id="Ellipse_4" data-name="Ellipse 4" cx="75.01" cy="75.01" r="75.01" transform="translate(852.696 341.998)" fill="#fdc2cc"/>
    <path id="Path_51" data-name="Path 51" d="M459.62,672.9,151.24,697l50-58.34c53.65-32.78,53.19-77.84,46.06-105.79a108.761,108.761,0,0,0-9.95-25.71l106.59.5h.9l8.76,19.91.4.9,6.52,14.81,22.22-39.82L390.47,491l4.32-7s63.9-14.82,64.82,23.15a101.5,101.5,0,0,1-.51,13.06c-3.18,30.56-19.9,50.88-33.75,64.73C409.61,600.67,459.62,672.9,459.62,672.9Z" transform="translate(568.106 171.018)" fill="#ec7580"/>
    <path id="Path_52" data-name="Path 52" d="M422.79,591.54c-2.26,9,3.44,24.47,11,39.66-36.25,3.9-76,1.87-76,1.87L317,644.19,202.18,677.53c-5-6.47-9-14.6-12.31-23.76l11.38-13.28c35.81-21.88,47.51-49.23,49.22-73.31a103,103,0,0,0-3.16-32.49A108.76,108.76,0,0,0,237.37,509l106.59.5h.9l8.76,19.91.4.9,6.52,14.81,22.22-39.82,7.71-12.46,4.32-7S458.69,471,459.62,509a101.494,101.494,0,0,1-.51,13.06c-3.18,30.56-19.9,50.88-33.75,64.73A10,10,0,0,0,422.79,591.54Z" transform="translate(568.106 171.018)" fill="#ec7580"/>
    <path id="Path_53" data-name="Path 53" d="M663.35,639.56c-1.85,22.22-55.56-7.41-55.56-7.41s-16.67-5.56-73.16-41.67a172.48,172.48,0,0,1-65-75.89,109,109,0,0,1-5.41-14.86L503.14,471l11.35,17.35L552.22,546l55.56,37S665.2,617.34,663.35,639.56Z" transform="translate(568.106 171.018)" fill="#fdc2cc"/>
    <path id="Path_54" data-name="Path 54" d="M1127.96,650.72H60.23l106.89-31.63,267.22-79.08,170.4-50.43H824.22Z" transform="translate(597.996 233.018)" fill="#cbcdda"/>
    <path id="Path_55" data-name="Path 55" d="M60.23,650.72,57.45,699.8H1129.81l-1.85-49.08Z" transform="translate(597.996 233.018)" fill="#cbcdda"/>
    <path id="Path_56" data-name="Path 56" d="M60.23,650.72,57.45,699.8H1129.81l-1.85-49.08Z" transform="translate(597.996 233.018)" opacity="0.1"/>
    <path id="Path_57" data-name="Path 57" d="M370.05,643.31l225.69-23.19,2.78,44.45L495.36,674.8a67.381,67.381,0,0,1-21.22-1.65L369.86,646.21a1.48,1.48,0,0,1,.19-2.9Z" transform="translate(568.106 171.018)" fill="#535461"/>
    <path id="Path_58" data-name="Path 58" d="M370.05,643.31l225.69-23.19,2.78,44.45L495.36,674.8a67.381,67.381,0,0,1-21.22-1.65L369.86,646.21a1.48,1.48,0,0,1,.19-2.9Z" transform="translate(568.106 171.018)" opacity="0.2"/>
    <path id="Path_59" data-name="Path 59" d="M370.05,642.38,597.6,619.19l2.78,44.45L497.21,672A67.379,67.379,0,0,1,476,670.38L369.86,645.29a1.48,1.48,0,0,1,.19-2.91Z" transform="translate(568.106 171.018)" fill="#535461"/>
    <path id="Path_60" data-name="Path 60" d="M424,644l120.32-12.26,1.47,23.5-54.55,4.43a35.63,35.63,0,0,1-11.22-.87L423.9,645.53A.78.78,0,0,1,424,644Z" transform="translate(568.106 171.018)" fill="#fff" opacity="0.3"/>
    <path id="Path_61" data-name="Path 61" d="M514.49,488.37c-.73,1-2,1.45-3.94,1.17-18.52-2.78-39.82,24.08-39.82,24.08s-.38.36-1.07,1a109,109,0,0,1-5.41-14.86L503.14,471Z" transform="translate(568.106 171.018)" opacity="0.1"/>
    <path id="Path_62" data-name="Path 62" d="M459.11,522c-8.71,4.85-20.7,8.33-30.05-1-16.15-16.15-44.46-14-46.22-13.9,2.89-.4,5.45-6.34,7.63-14.3l4.32-7s63.9-14.8,64.83,23.2A101.5,101.5,0,0,1,459.11,522Z" transform="translate(568.106 171.018)" opacity="0.1"/>
    <path id="Path_63" data-name="Path 63" d="M425.59,440.11l-5.8,42-13.07,25.48a79.679,79.679,0,0,0-24.82-2.33c9.21-1.27,15.16-58.82,15.16-58.82l.53-.12Z" transform="translate(568.106 171.018)" opacity="0.1"/>
    <path id="Path_64" data-name="Path 64" d="M510.55,487.69c-18.52-2.78-39.82,24.08-39.82,24.08s-25,24.08-41.67,7.41c-16.15-16.15-44.46-14-46.22-13.9C392.05,504,398,446.45,398,446.45l.53-.12,88.87-19.76s5.3,8.12,11.28,18.46C509.47,463.66,522.47,489.48,510.55,487.69Z" transform="translate(568.106 171.018)" fill="#ec7580"/>
    <path id="Path_65" data-name="Path 65" d="M488.32,450.65c.93,1.85-14.82,11.11-22.22,8.33s-25.93,12-27.78,13.89-43.52-2.78-43.52-2.78a195.81,195.81,0,0,0,3.73-23.76l88.87-19.76s5.3,8.12,11.28,18.46C493.15,447.3,487.87,449.74,488.32,450.65Z" transform="translate(568.106 171.018)" opacity="0.1"/>
    <path id="Path_66" data-name="Path 66" d="M434.61,374.71l-9,65.4-4.24,30.74c-12.42-.93-27.48-2.6-27.48-2.6s15.74-65.75-10.19-100c0,0,.55,0,1.54-.1C399.79,392.33,434.61,374.71,434.61,374.71Z" transform="translate(568.106 171.018)" opacity="0.1"/>
    <path id="Path_67" data-name="Path 67" d="M384.61,368.23s47.23-3.7,65.75,9.26,45.38,51.86,45.38,51.86l14.82,9.26s-23.15,8.33-22.22,10.19-14.82,11.11-22.22,8.33-25.93,12-27.78,13.89-43.52-2.78-43.52-2.78S410.54,402.49,384.61,368.23Z" transform="translate(568.106 171.018)" fill="#ec7580"/>
    <path id="Path_68" data-name="Path 68" d="M725.83,623.35c-10.72-.26-262.75-6.8-286.81-33.64-25.62-28.58-.75-110.93,20.19-170.39,22.79-64.73-4.38-157.68-4.65-158.74l1.79-.47c.28,1.07,27.59,94.56,4.61,159.82-32.57,92.51-39.3,147.64-20.56,168.54,23.54,26.25,282.86,33,285.48,33Z" transform="translate(568.106 171.018)" fill="#dfe6f5"/>
    <path id="Path_69" data-name="Path 69" d="M551.59,392.61l233.14-3.54A22.74,22.74,0,0,1,805,414.41l-26.45,220.2a22.74,22.74,0,0,1-21.21,20L519.05,669.36a22.74,22.74,0,0,1-23.86-26l31.64-231.42a22.74,22.74,0,0,1,24.76-19.33Z" transform="translate(568.106 171.018)" fill="#535461"/>
    <path id="Path_70" data-name="Path 70" d="M551.59,392.61l233.14-3.54A22.74,22.74,0,0,1,805,414.41l-26.45,220.2a22.74,22.74,0,0,1-21.21,20L519.05,669.36a22.74,22.74,0,0,1-23.86-26l31.64-231.42a22.74,22.74,0,0,1,24.76-19.33Z" transform="translate(568.106 171.018)" opacity="0.2"/>
    <path id="Path_71" data-name="Path 71" d="M553.44,392.61l233.14-3.54a22.74,22.74,0,0,1,20.31,25.34l-26.45,220.2a22.74,22.74,0,0,1-21.21,20L520.91,669.36a22.74,22.74,0,0,1-23.86-26l31.64-231.42a22.74,22.74,0,0,1,24.75-19.33Z" transform="translate(568.106 171.018)" fill="#535461"/>
    <circle id="Ellipse_5" data-name="Ellipse 5" cx="11.11" cy="11.11" r="11.11" transform="translate(1224.506 677.688)" fill="#fff" opacity="0.3"/>
    <path id="Path_72" data-name="Path 72" d="M433.79,631.21c-36.25,3.9-76,1.87-76,1.87L317,644.19,202.18,677.53c-5-6.47-9-14.6-12.31-23.76l11.38-13.28c35.81-21.88,47.51-49.23,49.22-73.31,3.06,23.95,3.57,45.52,3.57,45.52l46.3-4.63,67.27-16a60.743,60.743,0,0,1,14.14-1.65c8.76,0,24.35.19,41,1.09C420.53,600.52,426.23,616,433.79,631.21Z" transform="translate(568.106 171.018)" opacity="0.1"/>
    <path id="Path_73" data-name="Path 73" d="M484.62,619.19c-21.3,25-130.57,19.45-130.57,19.45L313.3,649.75,198.47,683.08c-.5-.65-1-1.31-1.46-2L464.24,602C481.3,605.44,491.77,610.8,484.62,619.19Z" transform="translate(568.106 171.018)" opacity="0.1"/>
    <path id="Path_74" data-name="Path 74" d="M484.62,617.34c-21.3,25-130.57,19.45-130.57,19.45l-40.75,11.1L198.47,681.23c-27-35-26.4-118.41-24.93-152.15.4-9.06.85-14.54.85-14.54s38.89-24.08,56.49,0c3.14,4.29,5.77,10.29,8,17.25,10.21,32.09,11.46,84.61,11.46,84.61l46.3-4.63,67.27-16a60.781,60.781,0,0,1,14.15-1.65C405.94,594.2,502.9,595.88,484.62,617.34Z" transform="translate(568.106 171.018)" fill="#fdc2cc"/>
    <path id="Path_75" data-name="Path 75" d="M238.87,531.8c-5.91-1.28-13.08-1-22.8,3.12-19.45,8.33-34.26,6.48-34.26,6.48s1.19-9.45-8.26-12.32c.4-9.06.85-14.54.85-14.54s38.89-24.08,56.49,0C234,518.83,236.65,524.83,238.87,531.8Z" transform="translate(568.106 171.018)" opacity="0.1"/>
    <path id="Path_76" data-name="Path 76" d="M354,530.29h0c-.62.13-8.95,1.7-25-1.86-16.67-3.7-23.15,3.7-32.41,7.41S263.3,541.4,254,537.7c-2.19-.88-4.39-2-6.72-3a108.761,108.761,0,0,0-9.91-25.7l106.59.5,9.66,19.91Z" transform="translate(568.106 171.018)" opacity="0.1"/>
    <path id="Path_77" data-name="Path 77" d="M354,528.44s-8.33,1.85-25-1.85-23.15,3.7-32.41,7.41-33.34,5.56-42.6,1.85-18.52-11.11-38-2.78-34.26,6.48-34.26,6.48,1.85-14.82-17.59-13-32.41-7.41-32.41-7.41l20.66-47.72,6.2-14.33L313.53,446.5h.74Z" transform="translate(568.106 171.018)" fill="#ec7580"/>
    <path id="Path_78" data-name="Path 78" d="M329,484c-10.19-16.67-63.9-1.85-63.9-1.85s-25.93,7.41-31.49-6.48S188.29,471,188.29,471s-28.85,10.82-35.83.44l6.2-14.33L313.53,446.5Z" transform="translate(568.106 171.018)" opacity="0.1"/>
    <path id="Path_79" data-name="Path 79" d="M284.59,374.71s-50.93-10.19-75,2.78S167,419.16,167,419.16l-35.2,32.41s13.89,6.48,20.37,17.59,36.12,0,36.12,0,39.82-9.26,45.38,4.63,31.49,6.48,31.49,6.48,53.71-14.82,63.9,1.85Z" transform="translate(568.106 171.018)" fill="#ec7580"/>
    <path id="Path_80" data-name="Path 80" d="M343.3,137.43c-6.9-1.16-14-2.29-20.84-.8-11.28,2.45-19.88,11.6-26.21,21.24S285,178.21,277.19,186.7c-5.23,5.69-11.66,10.26-16.32,16.42-6.86,9.07-9.25,20.64-11.46,31.8-3.24,16.38-6.49,33-5.06,49.67.72,8.36,2.62,16.59,3.07,25,.91,16.89-4.08,33.47-9,49.65-3.41,11.18-6.93,22.57-13.67,32.12-4.47,6.33-10.2,11.63-15.66,17.12a9.61,9.61,0,0,0-2.87,4.21c-1.18,4.78,4.59,8,9,10.16,13.49,6.73,22.34,19.86,32.83,30.68s25.5,20.11,39.93,15.77c4.28-1.29,8.34-3.74,12.8-3.66,3,.05,5.88,1.27,8.73,2.27a65.531,65.531,0,0,0,22.07,3.7,8.53,8.53,0,0,0,4.79-1c2.23-1.51,2.66-4.55,2.88-7.23,1.41-16.82,2.81-33.7,1.86-50.55-2.15-38.16-37.41-82.3-24-118.11,5.83-15.62,16.49-29.06,22.39-44.65,6.22-16.43,28.15-29.77,32.5-46.8.49-1.92,1.16-4,2.84-5,2.31-1.42,5.32-.18,7.55,1.36,12.62,8.7,16.73,25.06,21.32,39.68a245.152,245.152,0,0,0,13.71,34.34c3,6,9.44,12.95,15.08,9.31-2.84,25.28-19.24,47.36-22.95,72.52-3.62,24.52,5.15,49.58,1.75,74.12a76,76,0,0,1-20.45,42,101.68,101.68,0,0,0,37.83.34c12.69-2.29,26.27-8.3,30.85-20.36,5-13.27-2.73-27.51-6.66-41.15-9.43-32.79-8.7-71.57-5.71-105.56,3.08-34.95,7.7-65.55-.13-99.75-1.92-8.39-3.87-16.85-7.55-24.63-7.74-16.35-23.66-28.05-41.11-32.17-9-2.12-18.18,1.17-26.56-.39-4.22-.79-8-4.83-12.1-6.47C354.45,139.31,348.81,138.35,343.3,137.43Z" transform="translate(568.106 171.018)" opacity="0.1"/>
    <path id="Path_81" data-name="Path 81" d="M459.48,449.66c-4.58,12.06-18.16,18.07-30.86,20.36a101.89,101.89,0,0,1-37.83-.34,76.06,76.06,0,0,0,20.45-42c3.41-24.55-5.36-49.61-1.75-74.12,3.71-25.17,20.11-47.25,22.95-72.53-5.64,3.64-12.13-3.28-15.09-9.31a245.692,245.692,0,0,1-13.71-34.34c-4.59-14.62-8.7-31-21.32-39.68-2.23-1.54-5.24-2.78-7.55-1.35-1.69,1-2.35,3.11-2.84,5-4.34,17-26.28,30.36-32.49,46.79-5.91,15.59-16.57,29-22.4,44.65-13.36,35.8,21.9,79.94,24,118.1.94,16.85-.46,33.74-1.86,50.55-.23,2.69-.66,5.73-2.89,7.24a8.51,8.51,0,0,1-4.78,1A65.31,65.31,0,0,1,309.5,466c-2.85-1-5.71-2.22-8.73-2.27-4.46-.07-8.52,2.38-12.8,3.66-14.43,4.34-29.45-4.95-39.93-15.77S228.68,427.69,215.2,421c-4.41-2.2-10.18-5.38-9-10.17a9.679,9.679,0,0,1,2.87-4.2c5.46-5.49,11.2-10.8,15.67-17.12,6.74-9.55,10.25-20.94,13.67-32.12,4.94-16.18,9.93-32.76,9-49.65-.44-8.37-2.34-16.6-3.07-25-1.44-16.64,1.82-33.28,5.06-49.66,2.2-11.16,4.59-22.73,11.46-31.8,4.67-6.16,11.09-10.73,16.33-16.42,7.82-8.49,12.72-19.19,19.06-28.84s14.94-18.79,26.22-21.24c6.83-1.49,13.94-.35,20.84.8,5.51.93,11.15,1.89,16.36,4,4.11,1.64,7.89,5.69,12.1,6.46,8.38,1.57,17.59-1.72,26.56.4,17.45,4.11,33.37,15.81,41.11,32.16a73.6,73.6,0,0,1,3.82,10c1.48,4.8,2.61,9.71,3.73,14.61.24,1,.47,2.08.69,3.11h0c6.85,32.56,2.43,56.27-.56,90.14s-3.72,79.25,5.7,112C456.75,422.14,464.52,436.39,459.48,449.66Z" transform="translate(568.106 171.018)" fill="#865a61"/>
    <path id="Path_82" data-name="Path 82" d="M352.66,508.53s7.41,12,7.41,20.37c0,0,5.56-20.37,10.19-20.37" transform="translate(568.106 171.018)" opacity="0.05"/>
    <circle id="Ellipse_86" data-name="Ellipse 86" cx="3.7" cy="3.7" r="3.7" transform="translate(856.866 747.148)" opacity="0.1"/>
    <circle id="Ellipse_87" data-name="Ellipse 87" cx="1.39" cy="1.39" r="1.39" transform="translate(1032.806 839.748)" opacity="0.2"/>
    <path id="Path_93" data-name="Path 93" d="M447.67,206.31c-15.29-27.55-46.33-46.44-82-46.44-50.8,0-92.14,38.22-92.14,85.2H267c0-50.55,44.25-91.68,98.62-91.68,31.48,0,59.56,13.78,77.63,35.2,1.48,4.8,2.61,9.71,3.73,14.61C447.23,204.25,447.46,205.28,447.67,206.31Z" transform="translate(568.106 171.018)" fill="#535461"/>
    <path id="Path_94" data-name="Path 94" d="M250.89,156h8.53v59h-8.53a24.56,24.56,0,0,1-24.56-24.56v-9.82A24.56,24.56,0,0,1,250.89,156Z" transform="translate(597.996 233.018)" fill="#dfe6f5"/>
    <rect id="Rectangle_78" data-name="Rectangle 78" width="14.48" height="58.95" rx="6.03" transform="translate(850.176 389.068)" fill="#535461"/>
    <path id="Path_95" data-name="Path 95" d="M831.72,641.91s-15.88-5.38-23.52,8.61a25.52,25.52,0,0,0,.34,24.57c5,9.07,15.36,20.85,35,19.8,16.62-.89,22.15-13.57,23.65-25.37a26.06,26.06,0,0,0-34.61-27.9Z" transform="translate(568.106 171.018)" fill="#fff"/>
    <path id="Path_96" data-name="Path 96" d="M811.9,676.35a25.52,25.52,0,0,1-.34-24.57c7.64-14,23.52-8.61,23.52-8.61l.81-.29a25.83,25.83,0,0,1,18.66.42,25.84,25.84,0,0,0-22-2.1l-.81.29s-15.88-5.38-23.52,8.61a25.52,25.52,0,0,0,.34,24.57c3.31,6,8.92,13.11,18,17a39.35,39.35,0,0,1-14.66-15.32Z" transform="translate(568.106 171.018)" fill="#fff" opacity="0.1"/>
    <path id="Path_97" data-name="Path 97" d="M823.52,648.64s5.89,4.63,20.18,0" transform="translate(568.106 171.018)" opacity="0.2"/>
    <path id="Path_98" data-name="Path 98" d="M822.26,615s10.09,27.33,9.25,34.48l8-.84S826,624.67,829.41,615Z" transform="translate(568.106 171.018)" fill="#fff"/>
    <path id="Path_99" data-name="Path 99" d="M822.26,615s10.09,27.33,9.25,34.48l8-.84S826,624.67,829.41,615Z" transform="translate(568.106 171.018)" opacity="0.2"/>
    <path id="Path_100" data-name="Path 100" d="M863.45,617.28s-15.88-8.12-23-1.41-8.2,23.86-8.2,23.86S858.16,643.3,863.45,617.28Z" transform="translate(568.106 171.018)" fill="#fff"/>
    <path id="Path_101" data-name="Path 101" d="M863.45,617.28s-15.88-8.12-23-1.41-8.2,23.86-8.2,23.86S858.16,643.3,863.45,617.28Z" transform="translate(568.106 171.018)" fill="#fff" opacity="0.1"/>
    <path id="Path_102" data-name="Path 102" d="M832.26,639.73s4.17-19.91,31.19-22.45" transform="translate(568.106 171.018)" fill="none" stroke="#fff" stroke-miterlimit="10" stroke-width="1"/>
  </g>
</svg>
