<svg xmlns="http://www.w3.org/2000/svg" width="24" height="24" viewBox="0 0 24 24"><path d="M20,0H4A4.01,4.01,0,0,0,0,4V20a4.012,4.012,0,0,0,4,4H20a4.012,4.012,0,0,0,4-4V4A4.012,4.012,0,0,0,20,0ZM17.813,16.855a3.119,3.119,0,0,1-.923,1.234,4.713,4.713,0,0,1-1.607.82,7.915,7.915,0,0,1-2.333.305H6.518v-14h6.8a4.845,4.845,0,0,1,3.02.86,3.068,3.068,0,0,1,1.138,2.61,3.105,3.105,0,0,1-.518,1.81,3.319,3.319,0,0,1-1.48,1.156V11.7a3.025,3.025,0,0,1,1.95,1.215,4.109,4.109,0,0,1,.658,2.387,4,4,0,0,1-.3,1.528l.025.027ZM15.037,13.4a2.468,2.468,0,0,0-1.73-.558H8.985v4.368h4.334a2.423,2.423,0,0,0,1.73-.58,2.146,2.146,0,0,0,.62-1.64,2.053,2.053,0,0,0-.62-1.59h-.017Zm-.6-2.823a1.786,1.786,0,0,0,.59-1.444,1.819,1.819,0,0,0-.53-1.49,2.376,2.376,0,0,0-1.528-.433h-4v3.863h4a2.2,2.2,0,0,0,1.464-.5Z" fill="#563d7c"/></svg>