<svg xmlns="http://www.w3.org/2000/svg" width="18.628" height="23.999" viewBox="0 0 18.628 23.999"><path d="M11.146,0H15.07V18.165a25.9,25.9,0,0,1-5.1.535c-4.791,0-7.288-2.166-7.288-6.32,0-4,2.65-6.6,6.753-6.6a6.265,6.265,0,0,1,1.707.2V0Zm0,9.143a3.894,3.894,0,0,0-1.325-.2c-1.988,0-3.134,1.223-3.134,3.364,0,2.09,1.1,3.236,3.109,3.236a9.054,9.054,0,0,0,1.35-.1V9.142ZM21.314,6.06v9.1c0,3.134-.229,4.638-.917,5.937A6.269,6.269,0,0,1,17.186,24l-3.644-1.733a5.678,5.678,0,0,0,3.109-2.625c.561-1.121.739-2.421.739-5.835V6.059h3.924ZM17.39.021h3.924V4.047H17.39Z" transform="translate(-2.686)" fill="#092e20"/></svg>