<svg xmlns="http://www.w3.org/2000/svg" width="24" height="8.869" viewBox="0 0 24 8.869"><path d="M3.167,7.565v8.749H4.19V9.989a8.979,8.979,0,0,0-.049-1.2H4.18a2.908,2.908,0,0,0,.278.547l4.5,6.977h1.257V7.565H9.19v6.153A9.257,9.257,0,0,0,9.252,15H9.229q-.082-.158-.355-.585L4.5,7.566Zm9.315,0v8.749h4.65l0-.96H13.528V12.321h3.158V11.4H13.528V8.492h3.388V7.566Zm5.437,0v.926h2.515v7.823h1.022V8.491H24V7.565ZM.653,15.067a.643.643,0,0,0-.456.206.672.672,0,0,0-.2.48.662.662,0,0,0,.2.48.648.648,0,0,0,.48.2.662.662,0,0,0,.48-.2.657.657,0,0,0,.2-.48.667.667,0,0,0-.2-.48.658.658,0,0,0-.48-.206H.653Z" transform="translate(0 -7.566)" fill="#5c2d91"/></svg>