<svg xmlns="http://www.w3.org/2000/svg" width="18.035" height="24.453" viewBox="0 0 18.035 24.453"><path d="M67.127,267.473s-.934.543.665.727a13.992,13.992,0,0,0,5.063-.215,8.814,8.814,0,0,0,1.345.657c-4.787,2.052-10.834-.119-7.074-1.169" transform="translate(-61.319 -248.562)" fill="#5382a1"/><path d="M57.02,229.659s-1.048.776.553.941a19.754,19.754,0,0,0,6.533-.314,2.9,2.9,0,0,0,1.006.614c-5.788,1.692-12.234.133-8.092-1.241" transform="translate(-51.796 -213.425)" fill="#5382a1"/><path d="M129.743,77.612a1.791,1.791,0,0,1-.31,2.58s2.995-1.546,1.62-3.482c-1.285-1.806-2.27-2.7,3.063-5.8,0,0-8.371,2.091-4.373,6.7" transform="translate(-119.589 -65.919)" fill="#e76f00"/><path d="M17,292.727s.692.57-.762,1.011c-2.763.837-11.5,1.09-13.928.033-.873-.38.764-.906,1.278-1.017a3.316,3.316,0,0,1,.844-.095c-.97-.684-6.272,1.342-2.693,1.922,9.76,1.583,17.792-.713,15.26-1.855" transform="translate(-0.517 -271.836)" fill="#5382a1"/><path d="M32.548,190.428s-4.444,1.056-1.574,1.439a33.381,33.381,0,0,0,5.879-.063c1.839-.155,3.686-.485,3.686-.485a7.8,7.8,0,0,0-1.118.6c-4.513,1.187-13.232.635-10.722-.579a8.409,8.409,0,0,1,3.849-.91" transform="translate(-26.29 -176.968)" fill="#5382a1"/><path d="M200.3,191.836c4.588-2.384,2.467-4.675.986-4.366a3.432,3.432,0,0,0-.525.141.836.836,0,0,1,.392-.3c2.929-1.03,5.182,3.037-.946,4.648a.4.4,0,0,0,.092-.12" transform="translate(-186.066 -173.919)" fill="#5382a1"/><path d="M88.254.371s2.541,2.542-2.41,6.45c-3.97,3.135-.905,4.923,0,6.965-2.317-2.091-4.018-3.931-2.877-5.644C84.64,5.628,89.279,4.409,88.254.371" transform="translate(-76.79 -0.371)" fill="#e76f00"/><path d="M49.9,315.266c4.4.282,11.166-.156,11.326-2.24,0,0-.308.79-3.639,1.417a36.205,36.205,0,0,1-11.144.171s.563.466,3.457.651" transform="translate(-43.188 -290.889)" fill="#5382a1"/></svg>