<svg xmlns="http://www.w3.org/2000/svg" xmlns:xlink="http://www.w3.org/1999/xlink" width="27.337" height="27.195" viewBox="0 0 27.337 27.195"><defs><linearGradient id="a" x1="0.13" y1="0.117" x2="0.796" y2="0.785" gradientUnits="objectBoundingBox"><stop offset="0" stop-color="#387eb8"/><stop offset="1" stop-color="#366994"/></linearGradient><linearGradient id="b" x1="0.191" y1="0.203" x2="0.907" y2="0.888" gradientUnits="objectBoundingBox"><stop offset="0" stop-color="#ffe052"/><stop offset="1" stop-color="#ffc331"/></linearGradient></defs><path d="M58.508,67.469c-6.94,0-6.506,3.01-6.506,3.01l.008,3.118h6.623v.936H49.378s-4.441-.5-4.441,6.5,3.876,6.754,3.876,6.754h2.313V84.536S51,80.66,54.941,80.66h6.568s3.69.06,3.69-3.567v-6S65.76,67.469,58.508,67.469Zm-3.652,2.1a1.191,1.191,0,1,1-1.191,1.191A1.19,1.19,0,0,1,54.856,69.565Z" transform="translate(-44.938 -67.469)" fill="url(#a)"/><path d="M80.177,115.565c6.94,0,6.506-3.01,6.506-3.01l-.008-3.118H80.053V108.5h9.253s4.441.5,4.441-6.5-3.876-6.754-3.876-6.754H87.557V98.5s.125,3.876-3.814,3.876H77.175s-3.69-.06-3.69,3.567v6S72.924,115.565,80.177,115.565Zm3.652-2.1a1.191,1.191,0,1,1,1.191-1.191A1.19,1.19,0,0,1,83.828,113.469Z" transform="translate(-66.409 -88.371)" fill="url(#b)"/></svg>