<svg xmlns="http://www.w3.org/2000/svg" width="24" height="23.853" viewBox="0 0 24 23.853"><path d="M20.156.083c3.033.525,3.893,2.6,3.829,4.77L24,4.822,22.635,22.71,4.89,23.926h.016C3.433,23.864.15,23.729,0,19.139l1.645-3,2.819,6.586.5,1.172,2.805-9.144-.03.007.016-.03,9.255,2.956-1.4-5.431-.99-3.9,8.82-.569-.615-.51L16.5,2.114,20.159.073ZM0,19.089v0ZM5.13,5.073c3.561-3.533,8.157-5.621,9.922-3.84s-.1,6.105-3.673,9.636-8.1,5.734-9.864,3.957.045-6.217,3.612-9.75l0,0Z" transform="translate(0 -0.073)" fill="#cc342d"/></svg>