<svg xmlns="http://www.w3.org/2000/svg" width="21.105" height="24" viewBox="0 0 21.105 24"><path d="M15.337,23.979l7.216-1.561S19.949,4.8,19.928,4.688a.221.221,0,0,0-.211-.192c-.1,0-1.929-.136-1.929-.136s-1.275-1.274-1.439-1.411a.384.384,0,0,0-.121-.074l-.914,21.1h.023ZM11.71,11.305a4.27,4.27,0,0,0-1.774-.424c-1.447,0-1.5.906-1.5,1.141,0,1.232,3.24,1.715,3.24,4.629,0,2.3-1.44,3.76-3.406,3.76a4.69,4.69,0,0,1-3.54-1.465l.646-2.086a4.537,4.537,0,0,0,2.28,1.066.944.944,0,0,0,.975-.932c0-1.619-2.654-1.694-2.654-4.359C5.939,10.4,7.544,8.219,10.8,8.219a3.983,3.983,0,0,1,1.875.361L11.73,11.3l-.02.01ZM11.17.83a.671.671,0,0,1,.4.135C10.591,1.43,9.511,2.6,9.067,4.957c-.656.213-1.293.405-1.889.578C7.7,3.75,8.951.84,11.17.84ZM12.4,3.779v.135c-.754.232-1.583.484-2.394.736A4.147,4.147,0,0,1,12.1,1.679a5.883,5.883,0,0,1,.309,2.1Zm.539-2.234c.694.074,1.141.867,1.429,1.755-.349.114-.735.231-1.158.366V3.414a5.686,5.686,0,0,0-.271-1.871v0Zm2.992,1.289c-.02,0-.06.021-.078.021s-.289.075-.714.21c-.423-1.233-1.176-2.37-2.508-2.37h-.115A1.645,1.645,0,0,0,11.265,0C8.159,0,6.675,3.877,6.21,5.846c-1.194.365-2.063.636-2.16.674-.675.213-.694.232-.772.87-.075.462-1.83,14.063-1.83,14.063L15.009,24l.927-21.166Z" transform="translate(-1.448)" fill="#7ab55c"/></svg>