<svg xmlns="http://www.w3.org/2000/svg" width="24" height="24" viewBox="0 0 24 24"><path d="M21.469,6.825a10.8,10.8,0,0,1-4.045,14.5l3.3-9.527a10.2,10.2,0,0,0,.82-3.864,8.467,8.467,0,0,0-.07-1.11m-7.981.105c.647-.03,1.232-.105,1.232-.105a.451.451,0,0,0-.067-.9s-1.755.135-2.88.135c-1.064,0-2.85-.15-2.85-.15a.444.444,0,0,0-.075.885s.54.061,1.125.09l1.68,4.6-2.37,7.08L5.354,6.9C6,6.87,6.588,6.8,6.588,6.8a.449.449,0,0,0-.065-.9s-1.746.138-2.874.138c-.2,0-.438-.008-.69-.015A10.942,10.942,0,0,1,12,1.215a10.742,10.742,0,0,1,7.286,2.833c-.046,0-.091-.009-.141-.009a1.868,1.868,0,0,0-1.812,1.914,5.046,5.046,0,0,0,1.06,2.531,5.686,5.686,0,0,1,.89,2.977,12.971,12.971,0,0,1-.821,3.479l-1.075,3.585-3.9-11.61v.014ZM12,22.784a10.8,10.8,0,0,1-3.048-.437l3.237-9.406L15.5,22.028a1.609,1.609,0,0,0,.078.149A10.8,10.8,0,0,1,12,22.786M1.211,12a10.733,10.733,0,0,1,.935-4.39l5.144,14.1A10.794,10.794,0,0,1,1.211,12M12,0A12,12,0,1,0,24,12,12.016,12.016,0,0,0,12,0" fill="#21759b"/></svg>